<svg width="16" height="14" viewBox="0 0 16 14" fill="none" xmlns="http://www.w3.org/2000/svg">
<path d="M14.5322 0.740871C14.5322 0.740871 15.9892 0.172746 15.8678 1.55248C15.8273 2.12061 15.4631 4.10905 15.1798 6.25982L14.2085 12.631C14.2085 12.631 14.1275 13.5643 13.399 13.7266C12.6705 13.8889 11.5778 13.1585 11.3754 12.9962C11.2135 12.8744 8.34005 11.0483 7.32822 10.1555C7.04491 9.91206 6.72114 9.42509 7.36869 8.85696L11.6183 4.79894C12.1039 4.31196 12.5896 3.17571 10.566 4.55545L4.89991 8.4106C4.89991 8.4106 4.25236 8.81639 3.03823 8.45117L0.407533 7.63956C0.407533 7.63956 -0.563796 7.03086 1.09556 6.42212C5.14276 4.51484 10.1208 2.56697 14.5322 0.740871Z" fill="#75757F"/>
</svg>
