<svg width="148" height="40" viewBox="0 0 148 40" fill="none" xmlns="http://www.w3.org/2000/svg">
<path d="M23.1565 12.632C23.1565 8.5628 26.4552 5.26407 30.5244 5.26407H37.8924V12.632C37.8924 16.7013 34.5937 20 30.5244 20C26.4552 20 23.1565 16.7013 23.1565 12.632Z" fill="#FF6D35"/>
<path d="M30.5243 37.6771C26.4551 37.6771 23.1564 34.3784 23.1564 30.3092V22.9412H30.5243C34.5936 22.9412 37.8923 26.2399 37.8923 30.3092C37.8923 34.3784 34.5936 37.6771 30.5243 37.6771Z" fill="#5CC97B"/>
<path d="M20.8348 20.6522C20.8348 12.4754 14.7086 5.84695 7.15147 5.84695V30.0214C7.15147 34.1097 10.2146 37.424 13.9932 37.424C17.7718 37.424 20.8348 34.1097 20.8348 30.0214V20.6522Z" fill="#3D96F4"/>
<path d="M58.7933 10.9091V14.5856H49.2571V32H44.7979V10.9091H58.7933Z" fill="white"/>
<path d="M58.9236 37.9318V16.1818H63.2489V18.8388H63.4445C63.6367 18.4131 63.9148 17.9806 64.2787 17.5412C64.6494 17.0949 65.13 16.7242 65.7204 16.429C66.3177 16.1269 67.0592 15.9759 67.9449 15.9759C69.0983 15.9759 70.1624 16.2779 71.1373 16.8821C72.1122 17.4794 72.8915 18.3822 73.4751 19.5906C74.0586 20.792 74.3504 22.299 74.3504 24.1115C74.3504 25.8759 74.0655 27.3658 73.4957 28.581C72.9327 29.7893 72.1637 30.7058 71.1888 31.3306C70.2208 31.9485 69.136 32.2575 67.9346 32.2575C67.0832 32.2575 66.3589 32.1167 65.7616 31.8352C65.1712 31.5537 64.6872 31.2002 64.3096 30.7745C63.932 30.342 63.6436 29.906 63.4445 29.4666H63.3106V37.9318H58.9236ZM63.218 24.0909C63.218 25.0315 63.3484 25.8519 63.6093 26.5522C63.8702 27.2525 64.2478 27.7983 64.7421 28.1896C65.2364 28.5741 65.8372 28.7663 66.5443 28.7663C67.2583 28.7663 67.8625 28.5707 68.3568 28.1793C68.8511 27.7811 69.2253 27.2319 69.4793 26.5316C69.7402 25.8245 69.8707 25.0109 69.8707 24.0909C69.8707 23.1778 69.7436 22.3745 69.4896 21.6811C69.2356 20.9877 68.8614 20.4453 68.3671 20.054C67.8728 19.6626 67.2652 19.467 66.5443 19.467C65.8303 19.467 65.2261 19.6558 64.7318 20.0334C64.2444 20.411 63.8702 20.9465 63.6093 21.6399C63.3484 22.3333 63.218 23.1503 63.218 24.0909Z" fill="white"/>
<path d="M83.4221 32.3089C81.8225 32.3089 80.4391 31.9691 79.2719 31.2894C78.1117 30.6029 77.2157 29.6486 76.5841 28.4265C75.9525 27.1976 75.6366 25.773 75.6366 24.1527C75.6366 22.5187 75.9525 21.0907 76.5841 19.8686C77.2157 18.6397 78.1117 17.6854 79.2719 17.0057C80.4391 16.3191 81.8225 15.9759 83.4221 15.9759C85.0218 15.9759 86.4018 16.3191 87.5621 17.0057C88.7292 17.6854 89.6286 18.6397 90.2602 19.8686C90.8918 21.0907 91.2077 22.5187 91.2077 24.1527C91.2077 25.773 90.8918 27.1976 90.2602 28.4265C89.6286 29.6486 88.7292 30.6029 87.5621 31.2894C86.4018 31.9691 85.0218 32.3089 83.4221 32.3089ZM83.4427 28.9105C84.1705 28.9105 84.7781 28.7045 85.2655 28.2926C85.753 27.8738 86.1203 27.304 86.3675 26.5831C86.6215 25.8622 86.7485 25.0418 86.7485 24.1218C86.7485 23.2018 86.6215 22.3814 86.3675 21.6605C86.1203 20.9396 85.753 20.3698 85.2655 19.951C84.7781 19.5322 84.1705 19.3228 83.4427 19.3228C82.7081 19.3228 82.0902 19.5322 81.589 19.951C81.0947 20.3698 80.7206 20.9396 80.4665 21.6605C80.2194 22.3814 80.0958 23.2018 80.0958 24.1218C80.0958 25.0418 80.2194 25.8622 80.4665 26.5831C80.7206 27.304 81.0947 27.8738 81.589 28.2926C82.0902 28.7045 82.7081 28.9105 83.4427 28.9105Z" fill="white"/>
<path d="M95.259 37.9318C94.7029 37.9318 94.1811 37.8872 93.6936 37.7979C93.213 37.7156 92.8148 37.6091 92.499 37.4787L93.4877 34.2038C94.0026 34.3617 94.466 34.4476 94.8779 34.4613C95.2967 34.475 95.6572 34.3789 95.9593 34.1729C96.2682 33.967 96.5188 33.6168 96.711 33.1225L96.9685 32.4531L91.2941 16.1818H95.9078L99.1826 27.7983H99.3474L102.653 16.1818H107.298L101.15 33.7095C100.854 34.5608 100.453 35.3023 99.9447 35.9339C99.4435 36.5724 98.8084 37.0633 98.0395 37.4066C97.2706 37.7567 96.3437 37.9318 95.259 37.9318Z" fill="white"/>
<path d="M115.602 37.3757V10.9091H119.979V37.3757H115.602ZM115.602 32.3089C114.387 32.3089 113.278 32.1133 112.276 31.7219C111.273 31.3237 110.408 30.7642 109.681 30.0433C108.953 29.3156 108.39 28.454 107.992 27.4585C107.594 26.4561 107.394 25.3542 107.394 24.1527C107.394 22.9375 107.594 21.8321 107.992 20.8366C108.39 19.8343 108.953 18.9727 109.681 18.2518C110.408 17.524 111.273 16.9645 112.276 16.5732C113.278 16.175 114.387 15.9759 115.602 15.9759H116.416V32.3089H115.602ZM115.602 28.8899H116.086V19.3949H115.602C115.012 19.3949 114.487 19.5185 114.027 19.7656C113.567 20.0128 113.179 20.3526 112.863 20.7852C112.547 21.2108 112.307 21.712 112.142 22.2887C111.984 22.8654 111.905 23.4867 111.905 24.1527C111.905 25.0315 112.049 25.8313 112.338 26.5522C112.626 27.2662 113.048 27.8361 113.604 28.2617C114.16 28.6805 114.826 28.8899 115.602 28.8899ZM119.979 32.3089H119.165V15.9759H119.979C121.194 15.9759 122.303 16.175 123.305 16.5732C124.308 16.9645 125.173 17.524 125.9 18.2518C126.628 18.9727 127.191 19.8343 127.589 20.8366C127.988 21.8321 128.187 22.9375 128.187 24.1527C128.187 25.3542 127.988 26.4561 127.589 27.4585C127.191 28.454 126.628 29.3156 125.9 30.0433C125.173 30.7642 124.308 31.3237 123.305 31.7219C122.303 32.1133 121.194 32.3089 119.979 32.3089ZM119.979 28.8899C120.569 28.8899 121.095 28.7698 121.555 28.5295C122.015 28.2823 122.402 27.9425 122.718 27.5099C123.034 27.0774 123.274 26.5762 123.439 26.0064C123.604 25.4297 123.686 24.8118 123.686 24.1527C123.686 23.267 123.539 22.4672 123.244 21.7532C122.955 21.0323 122.536 20.459 121.987 20.0334C121.438 19.6077 120.768 19.3949 119.979 19.3949H119.495V28.8899H119.979Z" fill="white"/>
<path d="M134.249 26.2124L139.944 16.1818H144.269V32H140.088V21.9386L134.414 32H130.057V16.1818H134.249V26.2124Z" fill="white"/>
</svg>
