<svg width="138" height="33" viewBox="0 0 138 33" fill="none" xmlns="http://www.w3.org/2000/svg">
<path d="M16.1565 7.63204C16.1565 3.5628 19.4552 0.264069 23.5244 0.264069H30.8924V7.63204C30.8924 11.7013 27.5937 15 23.5244 15C19.4552 15 16.1565 11.7013 16.1565 7.63204Z" fill="#FF6D35"/>
<path d="M23.5243 32.6771C19.4551 32.6771 16.1564 29.3784 16.1564 25.3092V17.9412H23.5243C27.5936 17.9412 30.8923 21.2399 30.8923 25.3092C30.8923 29.3784 27.5936 32.6771 23.5243 32.6771Z" fill="#5CC97B"/>
<path d="M13.8348 15.6522C13.8348 7.47541 7.70857 0.846947 0.151466 0.846947V25.0214C0.151466 29.1097 3.21458 32.424 6.99325 32.424C10.7718 32.424 13.8348 29.1097 13.8348 25.0214V15.6522Z" fill="#3D96F4"/>
<path d="M51.7933 5.90909V9.58558H42.2571V27H37.7979V5.90909H51.7933Z" fill="white"/>
<path d="M51.9236 32.9318V11.1818H56.2489V13.8388H56.4445C56.6367 13.4131 56.9148 12.9806 57.2787 12.5412C57.6494 12.0949 58.13 11.7242 58.7204 11.429C59.3177 11.1269 60.0592 10.9759 60.9449 10.9759C62.0983 10.9759 63.1624 11.2779 64.1373 11.8821C65.1122 12.4794 65.8915 13.3822 66.4751 14.5906C67.0586 15.792 67.3504 17.299 67.3504 19.1115C67.3504 20.8759 67.0655 22.3658 66.4957 23.581C65.9327 24.7893 65.1637 25.7058 64.1888 26.3306C63.2208 26.9485 62.136 27.2575 60.9346 27.2575C60.0832 27.2575 59.3589 27.1167 58.7616 26.8352C58.1712 26.5537 57.6872 26.2002 57.3096 25.7745C56.932 25.342 56.6436 24.906 56.4445 24.4666H56.3106V32.9318H51.9236ZM56.218 19.0909C56.218 20.0315 56.3484 20.8519 56.6093 21.5522C56.8702 22.2525 57.2478 22.7983 57.7421 23.1896C58.2364 23.5741 58.8372 23.7663 59.5443 23.7663C60.2583 23.7663 60.8625 23.5707 61.3568 23.1793C61.8511 22.7811 62.2253 22.2319 62.4793 21.5316C62.7402 20.8245 62.8707 20.0109 62.8707 19.0909C62.8707 18.1778 62.7436 17.3745 62.4896 16.6811C62.2356 15.9877 61.8614 15.4453 61.3671 15.054C60.8728 14.6626 60.2652 14.467 59.5443 14.467C58.8303 14.467 58.2261 14.6558 57.7318 15.0334C57.2444 15.411 56.8702 15.9465 56.6093 16.6399C56.3484 17.3333 56.218 18.1503 56.218 19.0909Z" fill="white"/>
<path d="M76.4221 27.3089C74.8225 27.3089 73.4391 26.9691 72.2719 26.2894C71.1117 25.6029 70.2157 24.6486 69.5841 23.4265C68.9525 22.1976 68.6366 20.773 68.6366 19.1527C68.6366 17.5187 68.9525 16.0907 69.5841 14.8686C70.2157 13.6397 71.1117 12.6854 72.2719 12.0057C73.4391 11.3191 74.8225 10.9759 76.4221 10.9759C78.0218 10.9759 79.4018 11.3191 80.5621 12.0057C81.7292 12.6854 82.6286 13.6397 83.2602 14.8686C83.8918 16.0907 84.2077 17.5187 84.2077 19.1527C84.2077 20.773 83.8918 22.1976 83.2602 23.4265C82.6286 24.6486 81.7292 25.6029 80.5621 26.2894C79.4018 26.9691 78.0218 27.3089 76.4221 27.3089ZM76.4427 23.9105C77.1705 23.9105 77.7781 23.7045 78.2655 23.2926C78.753 22.8738 79.1203 22.304 79.3675 21.5831C79.6215 20.8622 79.7485 20.0418 79.7485 19.1218C79.7485 18.2018 79.6215 17.3814 79.3675 16.6605C79.1203 15.9396 78.753 15.3698 78.2655 14.951C77.7781 14.5322 77.1705 14.3228 76.4427 14.3228C75.7081 14.3228 75.0902 14.5322 74.589 14.951C74.0947 15.3698 73.7206 15.9396 73.4665 16.6605C73.2194 17.3814 73.0958 18.2018 73.0958 19.1218C73.0958 20.0418 73.2194 20.8622 73.4665 21.5831C73.7206 22.304 74.0947 22.8738 74.589 23.2926C75.0902 23.7045 75.7081 23.9105 76.4427 23.9105Z" fill="white"/>
<path d="M88.259 32.9318C87.7029 32.9318 87.1811 32.8872 86.6936 32.7979C86.213 32.7156 85.8148 32.6091 85.499 32.4787L86.4877 29.2038C87.0026 29.3617 87.466 29.4476 87.8779 29.4613C88.2967 29.475 88.6572 29.3789 88.9593 29.1729C89.2682 28.967 89.5188 28.6168 89.711 28.1225L89.9685 27.4531L84.2941 11.1818H88.9078L92.1826 22.7983H92.3474L95.6531 11.1818H100.298L94.1496 28.7095C93.8544 29.5608 93.4527 30.3023 92.9447 30.9339C92.4435 31.5724 91.8084 32.0633 91.0395 32.4066C90.2706 32.7567 89.3437 32.9318 88.259 32.9318Z" fill="white"/>
<path d="M108.602 32.3757V5.90909H112.979V32.3757H108.602ZM108.602 27.3089C107.387 27.3089 106.278 27.1133 105.276 26.7219C104.273 26.3237 103.408 25.7642 102.681 25.0433C101.953 24.3156 101.39 23.454 100.992 22.4585C100.594 21.4561 100.394 20.3542 100.394 19.1527C100.394 17.9375 100.594 16.8321 100.992 15.8366C101.39 14.8343 101.953 13.9727 102.681 13.2518C103.408 12.524 104.273 11.9645 105.276 11.5732C106.278 11.175 107.387 10.9759 108.602 10.9759H109.416V27.3089H108.602ZM108.602 23.8899H109.086V14.3949H108.602C108.012 14.3949 107.487 14.5185 107.027 14.7656C106.567 15.0128 106.179 15.3526 105.863 15.7852C105.547 16.2108 105.307 16.712 105.142 17.2887C104.984 17.8654 104.905 18.4867 104.905 19.1527C104.905 20.0315 105.049 20.8313 105.338 21.5522C105.626 22.2662 106.048 22.8361 106.604 23.2617C107.16 23.6805 107.826 23.8899 108.602 23.8899ZM112.979 27.3089H112.165V10.9759H112.979C114.194 10.9759 115.303 11.175 116.305 11.5732C117.308 11.9645 118.173 12.524 118.9 13.2518C119.628 13.9727 120.191 14.8343 120.589 15.8366C120.988 16.8321 121.187 17.9375 121.187 19.1527C121.187 20.3542 120.988 21.4561 120.589 22.4585C120.191 23.454 119.628 24.3156 118.9 25.0433C118.173 25.7642 117.308 26.3237 116.305 26.7219C115.303 27.1133 114.194 27.3089 112.979 27.3089ZM112.979 23.8899C113.569 23.8899 114.095 23.7698 114.555 23.5295C115.015 23.2823 115.402 22.9425 115.718 22.5099C116.034 22.0774 116.274 21.5762 116.439 21.0064C116.604 20.4297 116.686 19.8118 116.686 19.1527C116.686 18.267 116.539 17.4672 116.244 16.7532C115.955 16.0323 115.536 15.459 114.987 15.0334C114.438 14.6077 113.768 14.3949 112.979 14.3949H112.495V23.8899H112.979Z" fill="white"/>
<path d="M127.249 21.2124L132.944 11.1818H137.269V27H133.088V16.9386L127.414 27H123.057V11.1818H127.249V21.2124Z" fill="white"/>
</svg>
