<?xml version="1.0" standalone="no"?>
<!DOCTYPE svg PUBLIC "-//W3C//DTD SVG 20010904//EN"
 "http://www.w3.org/TR/2001/REC-SVG-20010904/DTD/svg10.dtd">
<svg version="1.0" xmlns="http://www.w3.org/2000/svg"
 width="83.000000pt" height="83.000000pt" viewBox="0 0 83.000000 83.000000"
 preserveAspectRatio="xMidYMid meet">
<metadata>
Created by potrace 1.14, written by Peter Selinger 2001-2017
</metadata>
<g transform="translate(0.000000,83.000000) scale(0.100000,-0.100000)"
fill="#000000" stroke="none">
<path d="M536 810 c-158 -80 -131 -310 42 -348 71 -16 129 4 180 63 40 45 46
67 46 195 l1 105 -115 2 c-97 2 -121 -1 -154 -17z"/>
<path d="M24 482 c2 -373 1 -369 69 -429 65 -57 158 -51 222 12 48 48 56 91
54 277 -1 169 -11 225 -51 296 -28 48 -99 117 -147 141 -32 17 -52 22 -132 37
-15 2 -17 -28 -15 -334z"/>
<path d="M430 273 c1 -154 22 -203 105 -245 90 -46 203 -9 250 82 46 89 3 209
-89 251 -32 15 -65 19 -153 19 l-113 0 0 -107z"/>
</g>
</svg>
