<svg width="30" height="30" viewBox="0 0 30 30" fill="none" xmlns="http://www.w3.org/2000/svg">
    <path fill-rule="evenodd" clip-rule="evenodd"
        d="M15 0C6.71574 0 0 6.71574 0 15C0 17.1568 0.455178 19.2072 1.27471 21.0605L9.06663 6.05928L16.1482 19.6927V6.05928H23.9259C23.9309 6.05928 23.9358 6.05928 23.9408 6.05928C25.8422 6.05928 27.5193 7.01961 28.5135 8.48172C26.088 3.46239 20.9483 0 15 0ZM29.4179 10.8478C29.4501 11.089 29.4667 11.3352 29.4667 11.5852C29.4667 14.2244 27.6164 16.4315 25.1423 16.9801L28.5949 21.3472C29.4964 19.4195 30 17.2686 30 15C30 13.5595 29.797 12.1664 29.4179 10.8478ZM1.98325 22.4593H16.1482H17.5852H28.0167C25.429 26.9652 20.5689 30 15 30C9.4311 30 4.57098 26.9652 1.98325 22.4593Z"
        fill="#FE940E" />
</svg>